PathFileType	4	(X/Y/Z)	Patient4_TMGait_0pt3_01_left_09.trc.trc
DataRate	CameraRate	NumFrames	NumMarkers	Units	OrigDataRate	OrigDataStartFrame	OrigNumFrames
50.724637681159	50.724637681159	4	33	mm	50.724637681159	18	       141
Frame#	Time	Sacral			L.Shoulder			Chest			R.Shoulder			Neck			R.ASIS			L.ASIS			R.Thigh.Superior			R.Thigh.Lateral			R.Thigh.Inferior			R.Patella			L.Thigh.Superior			L.Thigh.Lateral			L.Thigh.Inferior			L.Patella			L.Shank.Superior			L.Shank.Lateral			L.Shank.Inferior			R.Shank.Superior			R.Shank.Lateral			R.Shank.Inferior			R.Heel			R.Midfoot.Superior			R.Midfoot.Lateral			R.Toe			L.Heel			L.Midfoot.Lateral			L.Midfoot.Superior			L.Toe			L.Elbow			L.Wrist			R.Elbow			R.Wrist			
		X1	Y1	Z1	X2	Y2	Z2	X3	Y3	Z3	X4	Y4	Z4	X5	Y5	Z5	X6	Y6	Z6	X7	Y7	Z7	X8	Y8	Z8	X9	Y9	Z9	X10	Y10	Z10	X11	Y11	Z11	X12	Y12	Z12	X13	Y13	Z13	X14	Y14	Z14	X15	Y15	Z15	X16	Y16	Z16	X17	Y17	Z17	X18	Y18	Z18	X19	Y19	Z19	X20	Y20	Z20	X21	Y21	Z21	X22	Y22	Z22	X23	Y23	Z23	X24	Y24	Z24	X25	Y25	Z25	X26	Y26	Z26	X27	Y27	Z27	X28	Y28	Z28	X29	Y29	Z29	X30	Y30	Z30	X31	Y31	Z31	X32	Y32	Z32	X33	Y33	Z33	

18	16.755142857143	714.002596142673	999.670293887625	608.891401236048	836.742076218127	1425.583448394498	392.171575500161	981.215062277571	1361.239051628902	519.704440821136	947.300337287989	1440.754994218451	706.540574071675	864.196615410182	1489.720844888252	553.304931257713	961.653546978494	932.037317526086	673.249687870627	892.322446110386	963.415624558996	407.902843671944	976.873157123018	726.690223200992	630.546939581445	897.817493356539	617.154935697867	697.312344065984	956.226511840590	564.776096823712	604.478994460780	948.074661257724	472.419446580021	607.433100533010	978.959354523079	777.843700977599	426.759799392087	926.178629255757	653.265984050979	346.488899109718	1030.973293072470	591.336809775642	401.350969114662	1055.278691057160	520.453096483710	389.988659645520	1025.486184873035	447.319765613762	374.659757255557	935.425563022366	334.900164042569	318.132374452437	1006.614513917378	218.125849448428	359.661636881848	904.068700782553	387.804121257889	615.569889730725	823.279154621542	293.274972935101	681.239345219558	840.101123349503	197.351629002734	611.790476212034	680.134261112314	44.591475564514	589.448046911621	854.640353469836	96.183113726675	616.292178492875	766.622471506564	37.288063122781	659.801748324763	974.394795362661	40.762100942799	640.216704199907	897.771394055068	47.806701795827	389.692062074059	965.432537073174	53.605081258852	304.313983038170	1046.147214760622	121.481533467018	326.822426992318	1172.833075327176	82.302025467500	285.291415453413	711.959957735413	1092.916272581454	312.695628063824	697.180801533095	837.947381160300	265.088245460809	1121.726820482005	1135.339013593414	748.905935810545	1260.002707576692	1198.087166910226	550.905522551708	
19	16.774857142857	713.722790889532	1000.290047887308	607.120797695117	834.059002525039	1426.274030779774	389.976282270836	979.646134691869	1361.857260740759	516.289218115212	947.055106616045	1441.147981754268	703.270869279325	862.422179871850	1490.161865827206	551.065571042984	961.405334709682	932.698035606741	670.532319530176	891.061361089385	963.327215228132	405.514706521885	973.430529204653	726.303400752699	629.021495031781	892.579079377054	618.007723144369	696.684101526247	949.718161607965	564.457334790485	604.124997153994	940.086752647891	472.816525766239	607.344168118173	976.365167334309	776.242796128913	423.244765165941	920.805241056018	651.547753083238	344.512860329355	1025.964294842032	589.199584942969	397.909590257227	1049.309175800272	518.722684287854	387.525248174695	1020.394572325265	445.811381336788	372.580898912274	931.638165140920	332.331657478639	316.296838081809	1004.010001110886	216.485328261971	358.227682341549	896.740049646714	388.303499588733	615.609102288425	816.217246548580	293.554893998013	681.449744928153	833.504256055662	197.654060863955	611.949591081713	674.055096532080	44.422847628439	589.505792118623	848.588738183504	96.173637196283	616.344438956236	760.560429130572	37.191414018945	659.890799896055	968.342041181723	40.874566818453	640.184161204212	896.547706039275	45.986281495495	388.435670001268	964.429413847595	51.645677686064	303.189592012198	1044.776692278860	119.844362428616	325.727071481763	1171.756322113526	80.961903762147	284.754492910038	707.903836219147	1094.070320246267	312.141856615210	690.637209509824	839.230116873850	264.971252725805	1124.579931525622	1137.159352907394	736.338345541014	1249.907163723571	1204.180649719672	531.259497485186	
20	16.794571428571	713.542604965414	1000.521871744296	605.035022040635	831.598221238540	1426.586579982014	387.382788082853	978.183117483556	1362.169655724293	512.602947329480	946.717641284053	1441.215322373139	699.698188858421	860.739172182907	1490.262478445241	548.454327391044	961.348996454466	933.165939568732	667.583905277227	890.014447538359	962.731367959169	402.900411901190	970.508421420453	725.781033492214	627.374092125805	887.885397307570	618.672829625165	695.868799369942	943.794647455193	564.006324590028	603.601456656076	932.715162657702	473.013429605286	607.082417878681	973.876188154674	774.050830118084	419.582537799096	915.439045232263	649.270463979016	342.630493368902	1021.063231762934	586.561790356912	394.460530317915	1043.288018230486	516.315003229508	385.055498836341	1015.090720541289	443.647503658089	370.508796861907	927.121561943005	329.352300749917	314.872599586650	1000.433250907799	214.259403065234	357.103326596216	889.910224421008	388.621741649423	615.490646956799	809.524820618265	293.795102265333	681.549521000330	827.106001977611	197.852783048523	612.037883683438	667.993433470970	44.272120545118	589.554202351972	842.553274131943	96.160010741690	616.388385914870	754.511967045942	37.098222598472	659.967829045671	962.303690670949	40.957814553796	640.156709597457	893.803098119526	44.134109085650	387.929850045032	961.714233147747	49.290551640028	302.650227387101	1042.017486309807	117.471860036535	324.989969601533	1169.047151067133	78.334413895317	284.322815319297	704.445849347900	1094.771027134223	310.862987787671	685.030609250462	840.041558830097	264.158719311127	1126.638859163222	1138.490650941876	724.113827929622	1239.406316603210	1209.280219286771	513.006961673918	
21	16.814285714286	713.428668712717	1000.370429537598	602.682398225193	829.333555031396	1426.501450197000	384.404929162489	976.825321661616	1362.165174330009	508.632828458925	946.331814629582	1440.967595009591	695.820128991799	859.161560912058	1490.022233245393	545.467275868261	961.460460545729	933.402369625594	664.393342162209	889.105420668779	961.673244606568	400.056294822421	968.150669688888	725.112125980657	625.554319129040	883.845374307475	619.105622926915	694.804838846667	938.595196084171	563.401865903076	602.832042672506	926.136853329956	472.955815386763	606.575588893222	971.547400457601	771.439128251290	415.825408199982	910.293102902363	646.610061637810	340.785088830706	1016.472552900699	583.628076583987	390.999619320074	1037.495439366123	513.453633836106	382.533328267839	1009.872391174753	441.011903089307	368.397191097424	922.228990320420	326.122070380373	313.710747514236	996.212933883197	211.606366643851	356.195467465199	883.697802520777	388.716921961388	615.157942128553	803.298602924156	293.988437094073	681.501084616560	820.958740059879	197.930348189869	612.029350486963	661.956925222734	44.151872130520	589.593134013698	836.543227051660	96.143578722894	616.421425441038	748.484423650297	37.014946975885	660.030484728852	956.286310181962	41.004391721937	640.137236401918	889.863103528221	42.350687103769	387.995641921890	957.667052188563	46.672770019930	302.561357733456	1038.212837278132	114.533153344244	324.541169093473	1165.097781095062	74.643023836640	284.006052551973	701.546700420542	1094.983648285912	308.903227362870	680.344504740099	840.354742214077	262.604505955421	1128.059661615486	1139.351982574572	712.310340284755	1228.820838796716	1213.430102269989	496.169365973237	
